<svg xmlns="http://www.w3.org/2000/svg" viewBox="0 0 520 360" role="img" aria-labelledby="title desc">
  <title id="title">Glücksrad mit zehn gleich großen Feldern</title>
  <desc id="desc">Ein Glücksrad mit farbigen Feldern: vier blau, drei gelb, zwei rot und ein grün.</desc>
  <defs>
    <filter id="shadow" x="-20%" y="-20%" width="140%" height="140%">
      <feDropShadow dx="0" dy="8" stdDeviation="10" flood-color="#1f2937" flood-opacity=".2"/>
    </filter>
  </defs>
  <rect width="520" height="360" rx="24" fill="#f7fbff"/>
  <g transform="translate(260 172)" filter="url(#shadow)">
    <circle r="126" fill="#fff" stroke="#334155" stroke-width="4"/>
    <path d="M0 0 L0 -126 A126 126 0 0 1 74.1 -101.9 Z" fill="#73c8ef"/>
    <path d="M0 0 L74.1 -101.9 A126 126 0 0 1 119.8 -38.9 Z" fill="#ffe46b"/>
    <path d="M0 0 L119.8 -38.9 A126 126 0 0 1 119.8 38.9 Z" fill="#ef6f61"/>
    <path d="M0 0 L119.8 38.9 A126 126 0 0 1 74.1 101.9 Z" fill="#73c8ef"/>
    <path d="M0 0 L74.1 101.9 A126 126 0 0 1 0 126 Z" fill="#ffe46b"/>
    <path d="M0 0 L0 126 A126 126 0 0 1 -74.1 101.9 Z" fill="#40c978"/>
    <path d="M0 0 L-74.1 101.9 A126 126 0 0 1 -119.8 38.9 Z" fill="#73c8ef"/>
    <path d="M0 0 L-119.8 38.9 A126 126 0 0 1 -119.8 -38.9 Z" fill="#ffe46b"/>
    <path d="M0 0 L-119.8 -38.9 A126 126 0 0 1 -74.1 -101.9 Z" fill="#ef6f61"/>
    <path d="M0 0 L-74.1 -101.9 A126 126 0 0 1 0 -126 Z" fill="#73c8ef"/>
    <g stroke="#334155" stroke-width="2">
      <line x1="0" y1="0" x2="0" y2="-126"/>
      <line x1="0" y1="0" x2="74.1" y2="-101.9"/>
      <line x1="0" y1="0" x2="119.8" y2="-38.9"/>
      <line x1="0" y1="0" x2="119.8" y2="38.9"/>
      <line x1="0" y1="0" x2="74.1" y2="101.9"/>
      <line x1="0" y1="0" x2="0" y2="126"/>
      <line x1="0" y1="0" x2="-74.1" y2="101.9"/>
      <line x1="0" y1="0" x2="-119.8" y2="38.9"/>
      <line x1="0" y1="0" x2="-119.8" y2="-38.9"/>
      <line x1="0" y1="0" x2="-74.1" y2="-101.9"/>
    </g>
    <circle r="22" fill="#fff" stroke="#334155" stroke-width="4"/>
    <path d="M-18 -152 L18 -152 L0 -116 Z" fill="#f59e0b" stroke="#92400e" stroke-width="3"/>
  </g>
  <g font-family="Montserrat, Arial, sans-serif" font-weight="700" font-size="16" fill="#1f2937">
    <text x="34" y="48">10 gleich große Felder</text>
    <text x="34" y="76">4 blau · 3 gelb · 2 rot · 1 grün</text>
  </g>
</svg>
