<svg xmlns="http://www.w3.org/2000/svg" viewBox="0 0 1200 360" role="img" aria-labelledby="title desc">
  <title id="title">Digitale Bilder</title>
  <desc id="desc">Dekoratives Titelbild mit Kamera, Pixeln und Bilddateien.</desc>
  <rect width="1200" height="360" fill="#eaf6f6"/>
  <circle cx="160" cy="84" r="54" fill="#f8c958" opacity=".95"/>
  <rect x="80" y="105" width="310" height="190" rx="24" fill="#ffffff" stroke="#0c5f66" stroke-width="8"/>
  <rect x="122" y="76" width="92" height="52" rx="14" fill="#0c5f66"/>
  <rect x="244" y="68" width="60" height="38" rx="12" fill="#5cc4bd"/>
  <circle cx="236" cy="200" r="67" fill="#d8f0ee" stroke="#0c5f66" stroke-width="10"/>
  <circle cx="236" cy="200" r="36" fill="#5cc4bd"/>
  <circle cx="236" cy="200" r="16" fill="#ffffff"/>
  <g transform="translate(490 80)">
    <rect x="0" y="0" width="250" height="200" rx="18" fill="#ffffff" stroke="#d8e1e8" stroke-width="6"/>
    <rect x="28" y="32" width="42" height="42" fill="#0c5f66"/>
    <rect x="78" y="32" width="42" height="42" fill="#5cc4bd"/>
    <rect x="128" y="32" width="42" height="42" fill="#f8c958"/>
    <rect x="178" y="32" width="42" height="42" fill="#e76f51"/>
    <rect x="28" y="82" width="42" height="42" fill="#5cc4bd"/>
    <rect x="78" y="82" width="42" height="42" fill="#f8c958"/>
    <rect x="128" y="82" width="42" height="42" fill="#e76f51"/>
    <rect x="178" y="82" width="42" height="42" fill="#0c5f66"/>
    <rect x="28" y="132" width="42" height="42" fill="#f8c958"/>
    <rect x="78" y="132" width="42" height="42" fill="#e76f51"/>
    <rect x="128" y="132" width="42" height="42" fill="#0c5f66"/>
    <rect x="178" y="132" width="42" height="42" fill="#5cc4bd"/>
  </g>
  <g transform="translate(815 82)">
    <rect x="0" y="0" width="250" height="66" rx="14" fill="#ffffff" stroke="#0c5f66" stroke-width="6"/>
    <text x="36" y="43" font-family="Arial, sans-serif" font-size="30" font-weight="700" fill="#0c5f66">JPG</text>
    <rect x="0" y="86" width="250" height="66" rx="14" fill="#ffffff" stroke="#5cc4bd" stroke-width="6"/>
    <text x="36" y="129" font-family="Arial, sans-serif" font-size="30" font-weight="700" fill="#0c5f66">PNG</text>
    <rect x="0" y="172" width="250" height="66" rx="14" fill="#ffffff" stroke="#f8c958" stroke-width="6"/>
    <text x="36" y="215" font-family="Arial, sans-serif" font-size="30" font-weight="700" fill="#0c5f66">GIF</text>
  </g>
  <path d="M402 189 C430 145, 455 145, 483 182" fill="none" stroke="#0c5f66" stroke-width="10" stroke-linecap="round"/>
  <path d="M752 180 C779 144, 791 144, 817 176" fill="none" stroke="#0c5f66" stroke-width="10" stroke-linecap="round"/>
</svg>
