<svg xmlns="http://www.w3.org/2000/svg" viewBox="0 0 640 290" role="img" aria-label="Eine Forelle von der Seite, der Kopf zeigt nach rechts. Vier Stellen sind mit A, B, C und D bezeichnet." font-family="system-ui,Segoe UI,Arial,sans-serif">
<defs><linearGradient id="gForelle" x1="0" y1="0" x2="0" y2="1"><stop offset="0" stop-color="#55662b"/><stop offset=".38" stop-color="#8b9a40"/><stop offset=".62" stop-color="#d4cc7e"/><stop offset="1" stop-color="#f6f0d6"/></linearGradient></defs>
<rect width="640" height="290" fill="#dff1fb"/>
<path d="M0,14 Q30,6 60,14 T120,14 T180,14 T240,14 T300,14 T360,14 T420,14 T480,14 T540,14 T600,14 T660,14" fill="none" stroke="#fff" stroke-width="3" opacity=".8"/>
<g transform="translate(32 34) scale(2.4)">
<path d="M60,41 L4,10 Q26,45 4,80 L60,49 Z" fill="#c9a24c" stroke="#7a5a1c" stroke-width="2" stroke-linejoin="round"/>
<g stroke="#7a5a1c" stroke-width="1.2" opacity=".6" fill="none"><path d="M58,43 L11,22"/><path d="M58,45 L19,45"/><path d="M58,47 L11,68"/></g>
<path d="M114,26 Q122,4 134,2 L152,4 Q158,14 160,24 Z" fill="#b8903f" stroke="#7a5a1c" stroke-width="2" stroke-linejoin="round"/>
<path d="M92,58 L84,82 Q104,84 122,64 Z" fill="#b8903f" stroke="#7a5a1c" stroke-width="2" stroke-linejoin="round"/>
<path d="M60,41 C78,35 100,26 130,23 C154,20 182,21 206,29 C222,34 233,40 237,45 C233,50 223,55 207,61 C187,68 160,71 132,67 C106,63 82,53 60,49 Z" fill="url(#gForelle)" stroke="#4a5a22" stroke-width="2.4" stroke-linejoin="round"/>
<path d="M204,28 C170,20 130,22 96,32" fill="none" stroke="#fff" stroke-width="3" stroke-linecap="round" opacity=".35"/>
<g fill="#2f3a18"><circle cx="150" cy="32" r="2.4"/><circle cx="128" cy="35" r="2.2"/><circle cx="172" cy="31" r="2.2"/><circle cx="106" cy="37" r="2"/><circle cx="188" cy="34" r="2"/><circle cx="86" cy="40" r="1.8"/></g>
<g fill="#d6402e" stroke="#fff4e0" stroke-width="1.2"><circle cx="160" cy="45" r="2.6"/><circle cx="137" cy="48" r="2.4"/><circle cx="116" cy="45" r="2.2"/><circle cx="180" cy="47" r="2.4"/></g>
<path d="M203,30 C195,41 195,53 204,62" fill="none" stroke="#4a5a22" stroke-width="2" stroke-linecap="round"/>
<circle cx="218" cy="40" r="5.2" fill="#fff" stroke="#3a3a2a" stroke-width="1.4"/><circle cx="219.3" cy="40" r="2.8" fill="#15212b"/>
<path d="M237,45 L225,48.5" stroke="#4a3a1a" stroke-width="1.8" stroke-linecap="round"/>
<path d="M196,57 Q180,66 163,76 Q184,81 203,63 Z" fill="#d1ac55" stroke="#7a5a1c" stroke-width="2" stroke-linejoin="round"/>
<path d="M156,67 Q142,78 130,87 Q152,89 167,70 Z" fill="#d1ac55" stroke="#7a5a1c" stroke-width="2" stroke-linejoin="round"/>
<ellipse cx="132" cy="38" rx="34" ry="8.5" fill="#e8f6fd" stroke="#2f86bd" stroke-width="1.3" stroke-dasharray="4 3" opacity=".92"/>
</g>
<g stroke="#15212b" stroke-width="2.4" stroke-linecap="round" fill="none"><path d="M522 258L478 212"/><path d="M70 250L86 180"/><path d="M536 56L404 116"/><path d="M274 44L342 68"/></g>
<g fill="#15212b"><circle cx="478" cy="212" r="4"/><circle cx="86" cy="180" r="4"/><circle cx="404" cy="116" r="4"/><circle cx="342" cy="68" r="4"/></g>
<circle cx="528" cy="264" r="15" fill="#15212b" stroke="#fff" stroke-width="2"/><text x="528" y="270.5" text-anchor="middle" font-size="19" font-weight="700" fill="#fff">A</text><circle cx="68" cy="258" r="15" fill="#15212b" stroke="#fff" stroke-width="2"/><text x="68" y="264.5" text-anchor="middle" font-size="19" font-weight="700" fill="#fff">B</text><circle cx="546" cy="50" r="15" fill="#15212b" stroke="#fff" stroke-width="2"/><text x="546" y="56.5" text-anchor="middle" font-size="19" font-weight="700" fill="#fff">C</text><circle cx="264" cy="40" r="15" fill="#15212b" stroke="#fff" stroke-width="2"/><text x="264" y="46.5" text-anchor="middle" font-size="19" font-weight="700" fill="#fff">D</text>
</svg>
