<svg xmlns="http://www.w3.org/2000/svg" viewBox="0 0 640 360" role="img" aria-label="Liniendiagramm: Körpertemperatur von zwei Tieren in Abhängigkeit von der Außentemperatur." font-family="system-ui,Segoe UI,Arial,sans-serif">
<rect width="640" height="360" fill="#fff"/>
<g stroke="#dfe7ee" stroke-width="1.5"><line x1="221" y1="296" x2="221" y2="36"/><line x1="96" y1="231" x2="596" y2="231"/><line x1="346" y1="296" x2="346" y2="36"/><line x1="96" y1="166" x2="596" y2="166"/><line x1="471" y1="296" x2="471" y2="36"/><line x1="96" y1="101" x2="596" y2="101"/><line x1="596" y1="296" x2="596" y2="36"/><line x1="96" y1="36" x2="596" y2="36"/></g>
<path d="M96 28V296H604" fill="none" stroke="#15212b" stroke-width="2.5"/>
<g font-size="17" fill="#15212b" text-anchor="end"><text x="86" y="302">0</text><text x="86" y="237">10</text><text x="86" y="172">20</text><text x="86" y="107">30</text><text x="86" y="42">40</text></g>
<g font-size="17" fill="#15212b" text-anchor="middle"><text x="221" y="319">10</text><text x="346" y="319">20</text><text x="471" y="319">30</text><text x="596" y="319">40</text></g>
<text x="346" y="350" text-anchor="middle" font-size="17" font-weight="700" fill="#15212b">Außentemperatur in °C</text>
<text transform="translate(30 166) rotate(-90)" text-anchor="middle" font-size="17" font-weight="700" fill="#15212b">Körpertemperatur in °C</text>
<path d="M96 49H596" stroke="#d9722a" stroke-width="5" stroke-linecap="round"/>
<path d="M158.5 263.5L533.5 68.5" stroke="#4d7a22" stroke-width="5" stroke-linecap="round"/>
<g fill="#d9722a" stroke="#fff" stroke-width="2"><circle cx="221" cy="49" r="6.5"/><circle cx="346" cy="49" r="6.5"/><circle cx="471" cy="49" r="6.5"/></g>
<g fill="#4d7a22" stroke="#fff" stroke-width="2"><circle cx="221" cy="231" r="6.5"/><circle cx="346" cy="166" r="6.5"/><circle cx="471" cy="101" r="6.5"/></g>
<text x="114.75" y="77" font-size="19" font-weight="700" fill="#b5531a">Tier A</text>
<text x="446" y="159.5" font-size="19" font-weight="700" fill="#3d6119">Tier B</text>
</svg>
