<svg xmlns="http://www.w3.org/2000/svg" viewBox="0 0 640 336" width="640" height="336" font-family="Arial, Helvetica, sans-serif"><rect width="640" height="336" fill="#ffffff"/><defs><marker id="p" viewBox="0 0 10 10" refX="9" refY="5" markerWidth="7" markerHeight="7" orient="auto-start-reverse"><path d="M0 0 L10 5 L0 10 z" fill="#15212b"/></marker></defs><line x1="70" y1="290" x2="70" y2="24" stroke="#15212b" stroke-width="2.5" marker-end="url(#p)"/><line x1="70" y1="290" x2="610" y2="290" stroke="#15212b" stroke-width="2.5" marker-end="url(#p)"/><text x="28" y="160" font-size="15" font-weight="700" fill="#15212b" text-anchor="middle" transform="rotate(-90 28 160)">Energie</text><text x="340" y="322" font-size="15" fill="#15212b" text-anchor="middle" font-weight="700">Verlauf der Reaktion</text><path d="M100 140 H210 C250 140 262 50 330 50 C398 50 410 225 450 225 H560" fill="none" stroke="#15212b" stroke-width="4"/><path d="M100 140 H210 C250 140 262 100 330 100 C398 100 410 225 450 225 H560" fill="none" stroke="#1b8a7a" stroke-width="4" stroke-dasharray="10 6"/><text x="330" y="40" font-size="15" fill="#15212b" text-anchor="middle" font-weight="700">Kurve A</text><text x="330" y="126" font-size="15" fill="#15212b" text-anchor="middle" font-weight="700">Kurve B</text><text x="155" y="128" font-size="14" fill="#15212b" text-anchor="middle" font-weight="700">Ausgangsstoffe</text><text x="505" y="213" font-size="14" fill="#15212b" text-anchor="middle" font-weight="700">Produkte</text></svg>