<svg xmlns="http://www.w3.org/2000/svg" viewBox="0 0 640 336" width="640" height="336" font-family="Arial, Helvetica, sans-serif"><rect width="640" height="336" fill="#ffffff"/><defs><marker id="p" viewBox="0 0 10 10" refX="9" refY="5" markerWidth="7" markerHeight="7" orient="auto-start-reverse"><path d="M0 0 L10 5 L0 10 z" fill="#15212b"/></marker></defs><line x1="70" y1="290" x2="70" y2="24" stroke="#15212b" stroke-width="2.5" marker-end="url(#p)"/><line x1="70" y1="290" x2="610" y2="290" stroke="#15212b" stroke-width="2.5" marker-end="url(#p)"/><text x="28" y="160" font-size="15" font-weight="700" fill="#15212b" text-anchor="middle" transform="rotate(-90 28 160)">Energie</text><text x="340" y="322" font-size="15" fill="#15212b" text-anchor="middle" font-weight="700">Verlauf der Reaktion</text><path d="M100 120 H210 C250 120 262 50 320 50 C378 50 390 210 430 210 H560" fill="none" stroke="#c0392b" stroke-width="4"/><line x1="210" y1="120" x2="500" y2="120" stroke="#5f6770" stroke-width="1.5" stroke-dasharray="6 5"/><line x1="250" y1="50" x2="320" y2="50" stroke="#5f6770" stroke-width="1.5" stroke-dasharray="6 5"/><line x1="430" y1="210" x2="500" y2="210" stroke="#5f6770" stroke-width="1.5" stroke-dasharray="6 5"/><line x1="270" y1="120" x2="270" y2="50" stroke="#15212b" stroke-width="2.5" marker-start="url(#p)" marker-end="url(#p)"/><line x1="500" y1="120" x2="500" y2="210" stroke="#15212b" stroke-width="2.5" marker-start="url(#p)" marker-end="url(#p)"/><circle cx="150" cy="98" r="13" fill="#fff" stroke="#15212b" stroke-width="2"/><text x="150" y="103" font-size="15" font-weight="700" fill="#15212b" text-anchor="middle">A</text><circle cx="495" cy="236" r="13" fill="#fff" stroke="#15212b" stroke-width="2"/><text x="495" y="241" font-size="15" font-weight="700" fill="#15212b" text-anchor="middle">B</text><circle cx="244" cy="86" r="13" fill="#fff" stroke="#15212b" stroke-width="2"/><text x="244" y="91" font-size="15" font-weight="700" fill="#15212b" text-anchor="middle">C</text><circle cx="530" cy="165" r="13" fill="#fff" stroke="#15212b" stroke-width="2"/><text x="530" y="170" font-size="15" font-weight="700" fill="#15212b" text-anchor="middle">D</text></svg>