<svg xmlns="http://www.w3.org/2000/svg" viewBox="0 0 640 300" width="640" height="300" font-family="Arial, Helvetica, sans-serif"><rect width="640" height="300" fill="#ffffff"/><path d="M402 142 C432 82 208 82 238 142" fill="none" stroke="#2f6fdb" stroke-width="2.2"/><path d="M402 158 C432 218 208 218 238 158" fill="none" stroke="#2f6fdb" stroke-width="2.2"/><path d="M402 142 C477 27 163 27 238 142" fill="none" stroke="#2f6fdb" stroke-width="2.2"/><path d="M402 158 C477 273 163 273 238 158" fill="none" stroke="#2f6fdb" stroke-width="2.2"/><path d="M402 142 C527 -23 113 -23 238 142" fill="none" stroke="#2f6fdb" stroke-width="2.2"/><path d="M402 158 C527 323 113 323 238 158" fill="none" stroke="#2f6fdb" stroke-width="2.2"/><polygon points="311,97 325,91 325,103" fill="#2f6fdb"/><polygon points="311,18.25 325,12.3 325,24.3" fill="#2f6fdb"/><polygon points="311,203 325,197 325,209" fill="#2f6fdb"/><polygon points="311,244 325,238 325,250" fill="#2f6fdb"/><polygon points="311,281.75 325,275.8 325,287.8" fill="#2f6fdb"/><rect x="240" y="135" width="80" height="30" fill="#1b8a4b" stroke="#15212b" stroke-width="2"/><rect x="320" y="135" width="80" height="30" fill="#c0392b" stroke="#15212b" stroke-width="2"/><text x="280" y="158" font-size="22" font-weight="700" fill="#fff" text-anchor="middle">S</text><text x="360" y="158" font-size="22" font-weight="700" fill="#fff" text-anchor="middle">N</text><circle cx="414" cy="150" r="5" fill="#15212b" stroke="#fff" stroke-width="2"/><text x="430" y="148" font-size="20" font-weight="700" fill="#15212b" text-anchor="middle" stroke="#ffffff" stroke-width="4" paint-order="stroke">P</text><circle cx="320" cy="55.75" r="5" fill="#15212b" stroke="#fff" stroke-width="2"/><text x="320" y="45.8" font-size="20" font-weight="700" fill="#15212b" text-anchor="middle" stroke="#ffffff" stroke-width="4" paint-order="stroke">Q</text><circle cx="560" cy="236" r="5" fill="#15212b" stroke="#fff" stroke-width="2"/><text x="574" y="242" font-size="20" font-weight="700" fill="#15212b" text-anchor="middle" stroke="#ffffff" stroke-width="4" paint-order="stroke">R</text></svg>
