<svg xmlns="http://www.w3.org/2000/svg" viewBox="0 0 640 300" width="640" height="300" font-family="Arial, Helvetica, sans-serif"><rect width="640" height="300" fill="#ffffff"/><circle cx="50" cy="50" r="20" fill="#7bbf8e" stroke="#15212b" stroke-width="1.5"/><circle cx="102" cy="50" r="11" fill="#f2a04b" stroke="#15212b" stroke-width="1.5"/><circle cx="154" cy="50" r="20" fill="#7bbf8e" stroke="#15212b" stroke-width="1.5"/><circle cx="206" cy="50" r="11" fill="#f2a04b" stroke="#15212b" stroke-width="1.5"/><circle cx="258" cy="50" r="20" fill="#7bbf8e" stroke="#15212b" stroke-width="1.5"/><circle cx="310" cy="50" r="11" fill="#f2a04b" stroke="#15212b" stroke-width="1.5"/><circle cx="50" cy="102" r="11" fill="#f2a04b" stroke="#15212b" stroke-width="1.5"/><circle cx="102" cy="102" r="20" fill="#7bbf8e" stroke="#15212b" stroke-width="1.5"/><circle cx="154" cy="102" r="11" fill="#f2a04b" stroke="#15212b" stroke-width="1.5"/><circle cx="206" cy="102" r="20" fill="#7bbf8e" stroke="#15212b" stroke-width="1.5"/><circle cx="258" cy="102" r="11" fill="#f2a04b" stroke="#15212b" stroke-width="1.5"/><circle cx="310" cy="102" r="20" fill="#7bbf8e" stroke="#15212b" stroke-width="1.5"/><circle cx="50" cy="154" r="20" fill="#7bbf8e" stroke="#15212b" stroke-width="1.5"/><circle cx="102" cy="154" r="11" fill="#f2a04b" stroke="#15212b" stroke-width="1.5"/><circle cx="154" cy="154" r="20" fill="#7bbf8e" stroke="#15212b" stroke-width="1.5"/><circle cx="206" cy="154" r="11" fill="#f2a04b" stroke="#15212b" stroke-width="1.5"/><circle cx="258" cy="154" r="20" fill="#7bbf8e" stroke="#15212b" stroke-width="1.5"/><circle cx="310" cy="154" r="11" fill="#f2a04b" stroke="#15212b" stroke-width="1.5"/><circle cx="50" cy="206" r="11" fill="#f2a04b" stroke="#15212b" stroke-width="1.5"/><circle cx="102" cy="206" r="20" fill="#7bbf8e" stroke="#15212b" stroke-width="1.5"/><circle cx="154" cy="206" r="11" fill="#f2a04b" stroke="#15212b" stroke-width="1.5"/><circle cx="206" cy="206" r="20" fill="#7bbf8e" stroke="#15212b" stroke-width="1.5"/><circle cx="258" cy="206" r="11" fill="#f2a04b" stroke="#15212b" stroke-width="1.5"/><circle cx="310" cy="206" r="20" fill="#7bbf8e" stroke="#15212b" stroke-width="1.5"/><rect x="450" y="70" width="170" height="110" rx="10" fill="#f6f8f9" stroke="#c4ccd2"/><circle cx="495" cy="105" r="11" fill="#f2a04b" stroke="#15212b" stroke-width="1.5"/><text x="523" y="110" font-size="16" fill="#15212b" text-anchor="start">Na⁺</text><circle cx="495" cy="150" r="20" fill="#7bbf8e" stroke="#15212b" stroke-width="1.5"/><text x="523" y="155" font-size="16" fill="#15212b" text-anchor="start">Cl⁻</text><text x="180" y="290" font-size="14" fill="#7a8791" text-anchor="middle">Ausschnitt aus einem Kristall (flach gezeichnet)</text></svg>